<svg viewBox="0 0 18 22" fill="none" xmlns="http://www.w3.org/2000/svg">
<path d="M11.5 1V5.44444C11.5 5.73913 11.6171 6.02174 11.8254 6.23012C12.0338 6.43849 12.3164 6.55556 12.6111 6.55556H17.0556" stroke="#1182FF" stroke-width="1.5" stroke-linecap="round" stroke-linejoin="round"/>
<path d="M5.94444 7.66667H7.05556M5.94444 12.1111H12.6111M5.94444 16.5556H12.6111M14.8333 21H3.72222C3.13285 21 2.56762 20.7659 2.15087 20.3491C1.73413 19.9324 1.5 19.3671 1.5 18.7778V3.22222C1.5 2.63285 1.73413 2.06762 2.15087 1.65087C2.56762 1.23413 3.13285 1 3.72222 1H11.5L17.0556 6.55556V18.7778C17.0556 19.3671 16.8214 19.9324 16.4047 20.3491C15.9879 20.7659 15.4227 21 14.8333 21Z" stroke="#1182FF" stroke-width="1.5" stroke-linecap="round" stroke-linejoin="round"/>
</svg>
